<?xml version="1.0" encoding="utf-8"?>
<!-- Generator: Adobe Illustrator 20.0.0, SVG Export Plug-In . SVG Version: 6.00 Build 0)  -->
<svg version="1.1" id="Layer_1" xmlns="http://www.w3.org/2000/svg" xmlns:xlink="http://www.w3.org/1999/xlink" x="0px" y="0px"
	 viewBox="0 0 1920 1920" style="enable-background:new 0 0 1920 1920;" xml:space="preserve">
<style type="text/css">
	.st0{fill:none;stroke:#3D5EF9;stroke-width:30;stroke-linecap:round;stroke-miterlimit:10;}
	.st1{fill:#3D5EF9;}
</style>
<circle class="st0" cx="960" cy="960" r="703.6"/>
<g>
	<path class="st1" d="M958.2,932.6c-2.5,0-5-0.1-7.4-0.4c-31.4-3.5-54.6-29-70-45.8c-16.2-17.8-32-37.2-31.3-62.1
		c0.6-19.5,11.1-35.1,22.8-50.8c56.6-75.6,116.5-150.1,178.2-221.5c18.2-21.1,38.4-42.1,66.5-46.8c31-5.2,58.7,11.3,84.6,28.7
		c24.9,16.7,48,34,56.5,61.6c9,29.2-2.2,64.2-29.8,93.8c-8.3,8.9-15.1,15.7-21.5,22.1c-9.6,9.7-18,18-29.4,31.3
		c-4.6,5.3-12.6,5.9-17.9,1.3c-5.3-4.6-5.9-12.6-1.3-17.9c12-14,21.1-23.1,30.7-32.7c6.3-6.3,12.9-12.9,20.9-21.5
		c8-8.5,33.3-38.8,24-68.9c-6.1-19.7-25.4-33.9-46.4-48c-22.5-15.1-44.5-28.3-66.2-24.7c-19.8,3.3-35.6,20-51.5,38.3
		c-61.3,70.9-120.9,145-177.1,220.1c-9.5,12.7-17.4,24.2-17.8,36.2c-0.4,15.4,11.4,29.7,24.7,44.2c16.9,18.6,33.8,35.4,54,37.7
		c13.1,1.4,28.4-3.8,41.9-14.4c13.2-10.5,24-24.9,34.4-38.8c4.2-5.6,12.2-6.8,17.8-2.6c5.6,4.2,6.8,12.2,2.6,17.8
		c-11.4,15.2-23.2,31-39,43.5C994.6,925.6,976.1,932.6,958.2,932.6z"/>
	<path class="st1" d="M892.2,997.5c-9.6,0-17.4-5-22.6-8.4l-47-30.4c-5-3.2-16.8-10.8-17.7-24.2c-0.8-10.3,5.5-18.3,8.8-22.6
		l44.1-56.5c4.3-5.5,12.3-6.5,17.9-2.2c5.5,4.3,6.5,12.3,2.2,17.9l-44.1,56.5c-0.8,1-3.2,4.2-3.5,5.4c0.3-0.2,1.4,1.3,6.2,4.4
		l47,30.4c2.6,1.7,6.7,4,9,4.3c2.6-0.2,7.3-5.6,9.3-8l39.7-46.4c4.6-5.3,12.6-5.9,17.9-1.4c5.3,4.6,6,12.6,1.4,17.9l-39.7,46.4
		c-4.8,5.6-13.6,15.9-26.9,16.8C893.5,997.5,892.9,997.5,892.2,997.5z"/>
	<path class="st1" d="M1238.1,592.4c-2.9,0-5.8-1-8.1-2.9c-5.4-4.5-6.1-12.5-1.6-17.9c8.2-9.9,15.8-18.5,23.4-27.1
		c7.4-8.4,14.8-16.8,22.9-26.4c2.1-2.5,7.6-9.1,7-12.3c-0.5-2.7-5.9-6.8-8.5-8.8l-30.9-23.4c-3-2.3-11.1-8.4-15.1-7.2
		c-2.1,0.6-5.1,3.8-7.4,6.2l-52.1,54.9c-4.8,5.1-12.9,5.3-18,0.5c-5.1-4.8-5.3-12.9-0.5-18l52.1-54.9c4.2-4.5,10-10.5,18.6-13.1
		c16.4-4.7,30.7,6.2,37.6,11.4l30.9,23.4c6,4.5,16,12.1,18.2,24.6c2.6,14.9-7.2,26.7-12.5,33c-8.2,9.8-15.7,18.4-23.3,27
		c-7.4,8.4-14.9,16.9-22.9,26.5C1245.3,590.9,1241.7,592.4,1238.1,592.4z"/>
	<path class="st1" d="M1137.6,939.3L1137.6,939.3c-9.7,0-19.2-1.3-28.3-3.7c-32.8-8.9-60.5-33.6-72.4-64.4
		c-12.4-32.1-7-69.9,13.7-96.3c17.8-22.7,27.8-27.6,49.7-38.2l3.9-1.9c29.4-14.5,63.9-15.8,90.5-3c19.6,9.4,35.9,26.3,45.9,47.6
		c18.3,38.9,12,87.2-15.7,120.1C1203.9,924.4,1171.3,939.3,1137.6,939.3z M1154.3,748.2c-13.1,0-26.5,3.2-38.9,9.3l-4,1.9
		c-21,10.3-26.6,13-40.8,31.1c-15.3,19.5-19.2,47.5-10,71.5c9,23.4,30.2,42.2,55.4,49c6.9,1.9,14.2,2.8,21.7,2.8l0,0
		c26.2,0,51.6-11.5,67.8-30.8c21.1-25.1,26.1-63.3,12.2-92.9c-7.5-16-19.5-28.6-33.9-35.5C1174.9,750.4,1165,748.2,1154.3,748.2z"/>
	<path class="st1" d="M1051.1,1206c-4.8,0-9.4-2.7-11.5-7.3c-3-6.4-0.2-13.9,6.1-16.9c42.8-20.1,77.7-56.7,95.6-100.5
		c18-43.8,18.8-94.3,2.4-138.7c-2.4-6.6,0.9-13.9,7.5-16.3c6.6-2.4,13.9,0.9,16.3,7.5c18.6,50.3,17.6,107.6-2.7,157.2
		c-20.3,49.6-59.8,91.1-108.4,113.9C1054.8,1205.6,1052.9,1206,1051.1,1206z"/>
	<path class="st1" d="M1085.3,1262.7c-4.4,0-8.6-2.2-11-6.3c-3.6-6.1-1.5-13.9,4.5-17.4c33.1-19.4,70.6-41.4,94.5-73.4
		c22-29.4,32.3-66.8,38.7-96.1c7.2-33,10-58.4,9.1-82.1c-1.1-28.9-8.4-55.1-21.1-75.8c-3.7-6-1.8-13.8,4.2-17.5
		c6-3.7,13.8-1.8,17.5,4.2c15,24.3,23.6,54.8,24.9,88.1c1,26-2,53.3-9.7,88.5c-7,31.8-18.2,72.6-43.2,105.9
		c-27,36.1-66.9,59.5-102,80.1C1089.7,1262.2,1087.4,1262.7,1085.3,1262.7z"/>
	<path class="st1" d="M947.9,1478.7C947.9,1478.7,947.9,1478.7,947.9,1478.7c-92.6,0-185.4-1.3-246.9-2.3
		c-18.9-0.3-42.4-0.7-62.3-12.8c-17.3-10.5-26-29.9-26-57.8c0-27.9,8.8-46.4,26.9-56.5c17.1-9.6,36.6-10.4,53.5-10.4l5.1,0
		l513.3,3.4c10.6,0.1,22.6,0.1,34.2,4.9c18.2,7.5,31.8,25.5,36.6,48.2c3.2,15.3,9.9,47.1-8.1,63.5
		C1266.5,1465.9,1252.4,1478.7,947.9,1478.7z M692.9,1364.4c-14.3,0-29.3,0.5-41.1,7.1c-5.9,3.3-13.9,10.5-13.9,34.3
		c0,18.6,4.5,30.4,13.8,36c13.1,7.9,29.5,8.8,49.6,9.2c61.4,1.1,154,2.3,246.5,2.3c265.3,0,304.2-10.4,309.8-13.6
		c4.1-3.8,4.2-17.1-0.3-39c-2.3-11.2-9.2-24.9-21.3-29.9c-7.1-2.9-16-3-24.7-3L692.9,1364.4z"/>
	<path class="st1" d="M1134.5,1365.4c-4.9,0-9.5-2.8-11.6-7.5c-20.3-45.4-45.2-88.9-73.8-129.3c-8.7-12.3-18.2-24.8-30.7-31.6
		c-10-5.4-22.1-7.3-34.9-9.2c-5.6-0.9-11.3-1.7-16.8-2.9c-43.9-9.2-75.9-40.4-106.8-70.7l-5.3-5.2c-28-27.2-58.5-54.6-96.1-86.2
		c-13.2-11.1-30.8-24-50.3-25.6c-15.1-1.3-33.5,7.3-36.4,22.1c-2.7,13.7,8.2,28.3,14.9,35.8c19.9,22.2,46.2,37.5,74.1,53.7
		c34,19.8,69.2,40.2,91.9,74.4c33.5,50.5,28.9,116.7,25.6,165c-0.5,7-6.8,12.4-13.6,11.8c-7-0.5-12.3-6.5-11.8-13.6
		c4-57.9,5.1-109.1-21.4-149.2c-19.4-29.2-50.5-47.3-83.5-66.4c-28.4-16.5-57.8-33.6-80.3-58.8c-17.3-19.3-24.5-39.2-20.9-57.6
		c5.6-29.1,37-44.8,63.5-42.6c26.7,2.2,48.5,18,64.6,31.5c38.1,32,69.1,59.8,97.5,87.4l5.3,5.2c28.4,27.7,57.6,56.3,94.3,64
		c5.1,1.1,10.3,1.8,15.4,2.6c14.4,2.2,29.3,4.5,43.2,12c17.2,9.4,29.3,25.2,39.3,39.2c29.6,41.8,55.3,86.8,76.3,133.7
		c2.9,6.4,0,13.9-6.4,16.8C1138,1365.1,1136.2,1365.4,1134.5,1365.4z"/>
	<path class="st1" d="M690.1,1297.8c-29.4,0-55.4-17.3-63.1-42c-4.3-13.7-2.3-28,5.4-38.2c9.4-12.5,24.8-16.3,34.9-18.8l53.5-13.2
		c8.3-2,17.6-4.3,27.5-4.3l2.9,0.1c13.9,0.6,26,6.4,33.4,15.9c9.7,12.5,10.4,31.5,1.9,47.2c-7.1,13.1-18.6,22-29,28.9
		c-24.3,16.4-46.4,24.5-67.3,24.5H690.1z M748.4,1206.7c-6.8,0-14.3,1.8-21.4,3.6l-53.5,13.2c-8.8,2.2-17,4.5-20.7,9.4
		c-2.7,3.6-3.3,9.6-1.5,15.3c4.9,15.7,23.7,24.2,38.9,24.2l0,12.7l0.1-12.7c15.7,0,33.1-6.6,53.1-20.1c7.8-5.3,16.4-11.8,20.9-20
		c3.7-6.8,3.8-15,0.4-19.5c-2.7-3.5-8.1-5.8-14.4-6.1L748.4,1206.7z"/>
	<path class="st1" d="M856,1264.6c-0.3,0-0.6,0-0.9,0l-80.5-5.5c-7-0.5-12.3-6.5-11.8-13.5c0.5-7,6.7-12.4,13.5-11.8l80.5,5.5
		c7,0.5,12.3,6.5,11.8,13.5C868.3,1259.5,862.7,1264.6,856,1264.6z"/>
	<path class="st1" d="M1140.8,881.2L1140.8,881.2c-16.4,0-31.4-7.4-40.1-19.8c-11.5-16.5-9.1-40.2,5.3-52.9
		c7.3-6.4,17.4-10,29.1-10.4l2.5,0c12.4,0,23.6,3.5,32.4,10.1c11.6,8.7,18.1,22.5,16.7,36c-1,9.7-6.1,19.1-13.9,25.9
		c-6.8,5.8-15.4,9.5-25,10.8C1145.5,881,1143.1,881.2,1140.8,881.2z M1137.6,823.5c-7.2,0.2-12,1.7-14.8,4.2
		c-4.7,4.1-5.3,13.2-1.2,19.1c4.4,6.3,13.7,10,22.8,8.7c4.7-0.6,8.9-2.4,12-5c2.9-2.4,4.8-5.8,5.1-9c0.4-4.5-2.2-9.7-6.6-13
		C1150.5,825.3,1144.4,823.5,1137.6,823.5z"/>
	<path class="st1" d="M905.7,1361.4c-2.3,0-4.6-0.6-6.7-1.9c-6-3.7-7.8-11.5-4.1-17.5l22.7-36.6c3.7-6,11.5-7.8,17.5-4.1
		c6,3.7,7.8,11.5,4.1,17.5l-22.7,36.6C914.1,1359.3,910,1361.4,905.7,1361.4z"/>
	<path class="st1" d="M967.6,1363.5c-3.1,0-6.3-1.2-8.7-3.5c-5.1-4.8-5.3-12.9-0.5-18c10.2-10.8,18.7-23.1,25.1-36.5
		c3-6.3,10.6-9,17-6c6.3,3,9,10.6,5.9,17c-7.6,15.8-17.5,30.2-29.6,42.9C974.3,1362.2,970.9,1363.5,967.6,1363.5z"/>
	<path class="st1" d="M1026.7,1361.2c-3.3,0-6.5-1.3-9-3.8c-5-5-4.9-13,0.1-18c9.3-9.3,17.5-19.8,24.1-31.2
		c3.5-6.1,11.3-8.1,17.4-4.6c6.1,3.5,8.1,11.3,4.6,17.4c-7.8,13.3-17.3,25.6-28.2,36.4C1033.2,1359.9,1029.9,1361.2,1026.7,1361.2z"
		/>
	<path class="st1" d="M912.3,829c-2.9,0-5.9-1-8.3-3.1c-5.3-4.6-5.9-12.6-1.3-17.9l204.4-237c4.6-5.3,12.7-5.9,18-1.3
		c5.3,4.6,5.9,12.6,1.3,17.9l-204.4,237C919.4,827.5,915.8,829,912.3,829z"/>
</g>
</svg>
