<?xml version="1.0" encoding="utf-8"?>
<!-- Generator: Adobe Illustrator 20.0.0, SVG Export Plug-In . SVG Version: 6.00 Build 0)  -->
<svg version="1.1" id="Layer_1" xmlns="http://www.w3.org/2000/svg" xmlns:xlink="http://www.w3.org/1999/xlink" x="0px" y="0px"
	 viewBox="0 0 1920 1920" style="enable-background:new 0 0 1920 1920;" xml:space="preserve">
<style type="text/css">
	.st0{fill:none;stroke:#3D5EF9;stroke-width:30;stroke-linecap:round;stroke-miterlimit:10;}
	.st1{fill:none;}
</style>
<circle class="st0" cx="960" cy="959" r="703.6"/>
<rect x="227.1" y="226.1" class="st1" width="1465.9" height="1465.9"/>
<path class="st0" d="M1104.6,1267.7c-4.3-47.3-2.6-80.2-2.6-123.4c21.4-11.2,59.7-82.8,66.2-143.3c16.8-1.4,43.4-17.8,51.1-82.6
	c4.2-34.8-12.5-54.4-22.6-60.5c27.4-82.4,84.3-337.1-105.2-363.5c-19.5-34.2-69.4-51.6-134.3-51.6c-259.6,4.8-290.9,196-234,415
	c-10.1,6.2-26.8,25.7-22.6,60.5c7.8,64.8,34.3,81.2,51.1,82.6c6.4,60.5,46.3,132.1,67.8,143.3c0,43.2,1.6,76.2-2.7,123.4
	c-37,99.4-226.8,107.2-336.4,203c114.5,115.3,300.1,197.8,495.9,197.8s426-154.6,464.4-196.8
	C1332,1374.9,1141.7,1367.4,1104.6,1267.7z"/>
</svg>
