<?xml version="1.0" encoding="utf-8"?>
<!-- Generator: Adobe Illustrator 20.0.0, SVG Export Plug-In . SVG Version: 6.00 Build 0)  -->
<svg version="1.1" id="Layer_1" xmlns="http://www.w3.org/2000/svg" xmlns:xlink="http://www.w3.org/1999/xlink" x="0px" y="0px"
	 viewBox="0 0 1920 1920" style="enable-background:new 0 0 1920 1920;" xml:space="preserve">
<style type="text/css">
	.st0{fill:#3D5EF9;}
	.st1{fill:none;stroke:#3D5EF9;stroke-width:30;stroke-linecap:round;stroke-miterlimit:10;}
</style>
<g>
	<g>
		<g>
			<path class="st0" d="M1062.1,1374.2c-9.2-4.6-20.4-0.7-25,8.5c-2.9,5.7-2.5,12.2,0.4,17.5c-3.2,5.4-3.6,12.3-0.4,18.3
				c3.4,6.3,9.9,9.9,16.6,9.9c3,0,6-0.7,8.8-2.2c15.8-8.4,18.1-19.9,18-26C1080.4,1387.7,1070.9,1378.6,1062.1,1374.2z"/>
			<path class="st0" d="M1026.4,801.3c7.1,5.8,8.6,9.1,8.6,8.6c-0.1,7.3-8,18.7-13.9,24.8l-24.6,27.3c-6.9,7.7-6.3,19.5,1.4,26.5
				c3.6,3.2,8.1,4.8,12.5,4.8c5.1,0,10.2-2.1,13.9-6.2l23.9-26.6c2.5-2.5,24.2-25,24.2-50.7c0-13-7.3-25.3-22.3-37.6
				c-8-6.5-19.8-5.3-26.4,2.7C1017.2,783,1018.4,794.8,1026.4,801.3z"/>
			<path class="st0" d="M854.7,1261c-20.4-21.8-44.7-55.9-44.7-95c0-23.3,8.7-47.6,26-72.1c6-8.5,3.9-20.2-4.5-26.1
				c-8.5-6-20.2-3.9-26.1,4.5c-21.8,31-32.8,62.5-32.8,93.7c0,51.3,29.8,93.9,54.8,120.6c3.7,3.9,8.7,5.9,13.7,5.9
				c4.6,0,9.2-1.7,12.8-5.1C861.4,1280.5,861.8,1268.6,854.7,1261z"/>
			<path class="st0" d="M654.2,885.8c-55.7,18.6-87.7,15.1-110-11.9l-18.2-29.1l79.5-6.6c10.3-0.8,18-9.9,17.1-20.2
				c-0.9-10.3-9.9-18-20.2-17.1l-98.7,8.2l-26.1-41.7L607.2,744c10.2-1.8,16.9-11.6,15.1-21.8c-1.8-10.2-11.5-17-21.8-15.1
				l-144.4,26.1l-4.7-7.4c-12.1-21.5-16.3-29.8-16.3-47c0-6.8,9.9-15,23.2-19.3l411.3-74.8c10.2-1.9,16.9-11.6,15.1-21.8
				s-11.6-16.9-21.8-15.1l-412.4,75c-0.7,0.1-1.4,0.3-2.1,0.5c-30.9,9.3-50.8,31.1-50.8,55.4c0,26.6,7.6,41.5,21.6,66.2l93.7,150
				c0.4,0.6,0.8,1.3,1.3,1.8c23.3,28.9,52.2,38.4,81.6,38.4c24,0,48.4-6.4,70.2-13.6c9.8-3.3,15.1-13.9,11.9-23.7
				C674.6,887.9,664,882.5,654.2,885.8z"/>
			<path class="st0" d="M1118.3,624.4c-13.9-6.9-37-12-63.5-13.8c-10.1-0.6-19.3,7.1-20,17.4c-0.7,10.3,7.1,19.3,17.4,20
				c23.6,1.6,41.7,6.1,49.3,9.9c31,15.5,83.4,64.9,83.4,151.9c0,83.4-89.1,156-90,156.7c-8.1,6.5-9.4,18.3-2.9,26.3
				c3.7,4.6,9.1,7,14.6,7c4.1,0,8.2-1.3,11.7-4.1c4.2-3.4,104.1-84.4,104.1-186C1222.4,704.5,1157,643.7,1118.3,624.4z"/>
			<path class="st0" d="M1471.5,623.2c-0.7-0.2-1.4-0.4-2.1-0.5l-412.4-75c-10.2-1.8-19.9,4.9-21.8,15.1
				c-1.9,10.2,4.9,19.9,15.1,21.8l411.3,74.8c13.3,4.3,23.2,12.4,23.2,19.3c0,17.2-4.2,25.5-15.9,46.3l-5.1,8.2l-144.4-26.1
				c-10.2-1.9-19.9,4.9-21.8,15.1c-1.8,10.2,4.9,19.9,15.1,21.8l129.6,23.4l-26,41.7l-98.7-8.2c-10.3-0.9-19.4,6.8-20.2,17.1
				c-0.8,10.3,6.8,19.4,17.1,20.2l79.5,6.6l-18.2,29.1c-22.4,27-54.3,30.5-110,11.9c-9.9-3.3-20.4,2.1-23.7,11.9
				c-3.3,9.8,2,20.4,11.9,23.7c21.8,7.3,46.1,13.6,70.2,13.6c29.3,0,58.2-9.5,81.6-38.4c0.5-0.6,0.9-1.2,1.3-1.8l94.2-150.7
				c13.5-24,21.2-38.8,21.2-65.4C1522.3,654.3,1502.4,632.5,1471.5,623.2z"/>
			<path class="st0" d="M913.9,1134.7c-9.6-3.9-20.5,0.7-24.4,10.3c-2.9,7.2-4.4,14.3-4.4,21.1c0,10.5,3.6,21.7,10.7,33.2
				c3.5,5.7,9.7,8.9,16,8.9c3.4,0,6.8-0.9,9.8-2.8c8.8-5.5,11.5-17,6.1-25.8c-4.4-7.2-5.1-11.5-5.1-13.5c0-1.9,0.6-4.3,1.6-7
				C928.1,1149.5,923.4,1138.6,913.9,1134.7z"/>
			<path class="st0" d="M904.3,716.1c10.4,0,18.7-8.4,18.7-18.7c0-10.3-8.4-18.7-18.7-18.7h-0.2c-10.3,0-18.7,8.4-18.7,18.7
				C885.5,707.7,894,716.1,904.3,716.1z"/>
			<path class="st0" d="M978.7,914.6V762.5c20.5-11.8,37.5-30.6,37.5-65.1c0-28.4-13.3-50.8-37.5-65.9v-68.8
				c21.8-7.8,37.5-28.4,37.5-52.8c0-31-25.2-56.2-56.2-56.2s-56.2,25.2-56.2,56.2c0,24.4,15.7,45,37.5,52.8v53.5
				c-16.5-4.1-35.3-6.3-56.4-6.3c-32.9,0-65.5,5.7-83.2,14.5c-38.7,19.3-104.1,80.2-104.1,185.5c0,101.6,96.6,180,100.8,183.3
				l142.9,114.3v134.2l-50.7,61c-1.8,1.8-43,43.7-43,107c0,67.8,47.3,91.5,85.3,110.5l3.7,1.8c1.6,0.8,3.2,1.6,4.7,2.4v35.3
				c0,10.3,8.4,18.7,18.7,18.7c10.3,0,18.7-8.4,18.7-18.7v-18.1c12.8,4.9,25.1,8.2,36.3,8.2c18.6,0,29.2-8.8,34.8-16.2
				c22.9-30.2-2.7-65.6-22.4-82.6l-57.7-43.3l114.8-114.8c2.6-2.2,62.9-53.7,62.9-126.8c0-81.8-59.2-142-61.7-144.5L978.7,914.6z
				 M960,491.2c10.3,0,18.7,8.4,18.7,18.7s-8.4,18.7-18.7,18.7s-18.7-8.4-18.7-18.7C941.3,499.6,949.7,491.2,960,491.2z
				 M1059.2,1265.2L928,1396.4c-3.8,3.8-5.8,9.2-5.5,14.6c0.4,5.4,3.1,10.4,7.5,13.7l74,55.4c6.8,5.8,21.5,23.6,16,30.7
				c-0.3,0.5-1,1.4-5,1.4c-14.4,0-39.5-12.6-61.7-23.7l-3.7-1.9c-40.1-20-64.6-34.5-64.6-76.9c0-47.3,31.7-80.2,33.1-81.7
				l92.6-111.2c2.5-2.5,24.2-25,24.2-50.7s-21.8-48.3-24.2-50.7c-0.5-0.5-1-1-1.5-1.4L821.8,963.9c-0.8-0.7-86.7-70.7-86.7-154.1
				c0-87,52.4-136.5,83.4-151.9c10.5-5.3,36.7-10.6,66.4-10.6c22,0,93.9,3.6,93.9,50c0,26.1-14.6,33.5-50.4,45.5
				c-11,3.7-22.4,7.5-32.9,12.7c-11.2,5.6-47.9,26.1-47.9,54.3c0,25.8,21.8,48.3,24.2,50.7l74.2,74.2c0.6,0.7,1.3,1.4,2,2
				l111.3,111.3c0.5,0.5,50.7,51.5,50.7,118C1110,1221.4,1060.9,1263.7,1059.2,1265.2z M978.7,1196.7v-59.2l6.1,4.9
				c5.3,5.7,12.7,16.6,12.7,23.6c0,7.3-7.9,18.8-14.4,25.5L978.7,1196.7z M941.3,778.1v99l-42.9-42.9c-5.4-5.5-13.3-16.9-13.4-23.5
				c1.4-4.7,14.9-15.4,27.2-21.5c8.2-4.1,17.8-7.3,28-10.7C940.5,778.3,940.9,778.2,941.3,778.1z"/>
		</g>
	</g>
</g>
<circle class="st1" cx="960" cy="960" r="703.6"/>
</svg>
