<?xml version="1.0" encoding="utf-8"?>
<!-- Generator: Adobe Illustrator 20.0.0, SVG Export Plug-In . SVG Version: 6.00 Build 0)  -->
<svg version="1.1" id="Layer_1" xmlns="http://www.w3.org/2000/svg" xmlns:xlink="http://www.w3.org/1999/xlink" x="0px" y="0px"
	 viewBox="0 0 1920 1920" style="enable-background:new 0 0 1920 1920;" xml:space="preserve">
<style type="text/css">
	.st0{fill:none;stroke:#3D5EF9;stroke-width:30;stroke-linecap:round;stroke-miterlimit:10;}
	.st1{fill:#3D5EF9;}
</style>
<circle class="st0" cx="960" cy="960" r="703.6"/>
<g>
	<g>
		<g>
			<path class="st1" d="M724.5,910.5h122.1c7.5,0,13.5-6,13.5-13.5s-6.1-13.5-13.5-13.5H724.5c-7.5,0-13.5,6-13.5,13.5
				S717,910.5,724.5,910.5z"/>
			<path class="st1" d="M929.9,967c0-7.5-6.1-13.5-13.5-13.5H724.5c-7.5,0-13.5,6-13.5,13.5c0,7.5,6.1,13.5,13.5,13.5h191.9
				C923.8,980.5,929.9,974.5,929.9,967z"/>
			<path class="st1" d="M724.5,1033h104.7c7.5,0,13.5-6,13.5-13.5c0-7.5-6.1-13.5-13.5-13.5H724.5c-7.5,0-13.5,6-13.5,13.5
				C711,1026.9,717,1033,724.5,1033z"/>
			<path class="st1" d="M984.4,1324.3h-329c8-10.9,12.7-24.4,12.7-39V530.2c0-2.5,2-4.5,4.5-4.5h2.4c1.2,0,2.4,0.5,3.2,1.3
				l29.6,29.7c2.5,2.5,6,4,9.6,4c3.6,0,7-1.4,9.6-4l29.6-29.7c0.9-0.9,2-1.3,3.2-1.3h2.5c1.2,0,2.4,0.5,3.2,1.3l29.6,29.7
				c2.5,2.5,6,4,9.6,4c3.6,0,7-1.4,9.6-4l29.6-29.7c0.8-0.8,2-1.3,3.2-1.3h2.5c1.2,0,2.4,0.5,3.2,1.3l29.6,29.7c2.5,2.5,6,4,9.6,4
				c3.6,0,7-1.4,9.6-4l29.6-29.7c0.8-0.8,2-1.3,3.2-1.3h2.5c1.2,0,2.4,0.5,3.2,1.3l29.6,29.7c2.5,2.5,6,4,9.6,4s7-1.4,9.6-4
				l29.6-29.7c0.8-0.8,2-1.3,3.2-1.3h2.5c1.2,0,2.4,0.5,3.2,1.3l29.6,29.7c2.5,2.5,6,4,9.6,4c3.6,0,7-1.4,9.6-4l29.6-29.7
				c0.8-0.8,2-1.3,3.2-1.3h2.4c2.5,0,4.5,2,4.5,4.5v244.4c0,7.5,6.1,13.5,13.5,13.5c7.5,0,13.5-6,13.5-13.5V530.2
				c0-17.4-14.1-31.5-31.5-31.5h-2.4c-8.3,0-16.5,3.4-22.3,9.3l-20,20.1l-20.1-20.1c-5.9-5.9-14-9.3-22.3-9.3h-2.5
				c-8.3,0-16.5,3.4-22.3,9.3l-20,20.1l-20-20.1c-5.9-5.9-14-9.3-22.3-9.3h-2.5c-8.3,0-16.5,3.4-22.3,9.3L892,528l-20-20.1
				c-5.9-5.9-14-9.3-22.3-9.3h-2.5c-8.3,0-16.5,3.4-22.3,9.3l-20,20.1l-20-20.1c-5.9-5.9-14-9.3-22.3-9.3h-2.5
				c-8.4,0-16.4,3.3-22.3,9.3l-20,20.1l-20-20.1c-5.9-5.9-14-9.3-22.3-9.3h-2.4c-17.4,0-31.5,14.1-31.5,31.5v755.2
				c0,21.5-17.4,39-38.8,39s-38.8-17.5-38.8-39V918.5c0-2.5,2-4.5,4.5-4.5h2.4c1.2,0,2.4,0.5,3.2,1.3l29.6,29.7
				c5.3,5.3,13.8,5.3,19.1,0c5.3-5.3,5.3-13.8,0-19.1l-29.6-29.7c-5.9-5.9-14-9.3-22.3-9.3H568c-17.4,0-31.5,14.1-31.5,31.5v366.8
				c0,36.4,29.5,66,65.9,66h382.1c7.5,0,13.5-6,13.5-13.5C997.9,1330.4,991.9,1324.3,984.4,1324.3z"/>
			<path class="st1" d="M724.5,1138h122.1c7.5,0,13.5-6,13.5-13.5c0-7.5-6.1-13.5-13.5-13.5H724.5c-7.5,0-13.5,6-13.5,13.5
				C711,1131.9,717,1138,724.5,1138z"/>
			<path class="st1" d="M925.1,682.3h-21.4v-21.5c0-7.5-6.1-13.5-13.5-13.5c-7.5,0-13.5,6-13.5,13.5v21.5h-21.4
				c-7.5,0-13.5,6-13.5,13.5c0,7.5,6.1,13.5,13.5,13.5h21.4v21.5c0,7.5,6.1,13.5,13.5,13.5c7.5,0,13.5-6,13.5-13.5v-21.5h21.4
				c7.5,0,13.5-6,13.5-13.5C938.6,688.4,932.6,682.3,925.1,682.3z"/>
			<path class="st1" d="M916.4,1260.4c7.5,0,13.5-6,13.5-13.5c0-7.5-6.1-13.5-13.5-13.5H724.5c-7.5,0-13.5,6-13.5,13.5
				c0,7.5,6.1,13.5,13.5,13.5H916.4z"/>
			<path class="st1" d="M982.2,695.8c0-50.9-41.3-92.2-92-92.2c-50.7,0-92,41.4-92,92.2s41.3,92.2,92,92.2
				C941,788.1,982.2,746.7,982.2,695.8z M890.2,761.1c-35.8,0-65-29.3-65-65.2s29.2-65.2,65-65.2c35.8,0,65,29.3,65,65.2
				S926.1,761.1,890.2,761.1z"/>
			<path class="st1" d="M1352,866h-47v-20.9c0-17.4-14.1-31.5-31.5-31.5h-173.3c-17.4,0-31.5,14.1-31.5,31.5V866h-47
				c-17.4,0-31.5,14.1-31.5,31.5v68.9c0,17.4,14.1,31.5,31.5,31.5h3.4v374.8c0,26.7,21.7,48.5,48.4,48.5h226.8
				c26.7,0,48.4-21.8,48.4-48.5V998h3.4c17.4,0,31.5-14.1,31.5-31.5v-68.9C1383.5,880.2,1369.4,866,1352,866z M1278.8,893h25.3V971
				h-25.3V893z M1095.6,845.1c0-2.5,2-4.5,4.5-4.5h173.3c2.5,0,4.5,2,4.5,4.5V866h-12.7h-169.7V845.1z M1251.8,893V971h-25.3V893
				l0,0H1251.8L1251.8,893z M1199.5,893V971h-25.3V893l0,0H1199.5L1199.5,893z M1147.1,893V971h-25.3V893l0,0H1147.1L1147.1,893z
				 M1069.5,893h25.3V971h-25.3V893z M1042.4,971h-20.8c-2.5,0-4.5-2-4.5-4.5v-68.9c0-2.5,2-4.5,4.5-4.5h20.8V971z M1321.6,1372.8
				c0,11.8-9.6,21.5-21.4,21.5h-226.8c-11.8,0-21.4-9.6-21.4-21.5v-77.5h269.6V1372.8z M1321.6,1268.4H1052V1068h269.6V1268.4z
				 M1321.6,1040.9H1052V998h269.6V1040.9z M1356.5,966.5c0,2.5-2,4.5-4.5,4.5h-20.8V893h20.8c2.5,0,4.5,2,4.5,4.5V966.5z"/>
			<path class="st1" d="M1108.3,1138h157c7.5,0,13.5-6,13.5-13.5c0-7.5-6.1-13.5-13.5-13.5h-157c-7.5,0-13.5,6-13.5,13.5
				C1094.8,1131.9,1100.8,1138,1108.3,1138z"/>
			<path class="st1" d="M1221.7,1163.4h-69.8c-7.5,0-13.5,6-13.5,13.5c0,7.5,6.1,13.5,13.5,13.5h69.8c7.5,0,13.5-6,13.5-13.5
				C1235.2,1169.5,1229.2,1163.4,1221.7,1163.4z"/>
			<path class="st1" d="M986.2,1180.9H724.5c-7.5,0-13.5,6-13.5,13.5c0,7.5,6.1,13.5,13.5,13.5h261.7c7.5,0,13.5-6,13.5-13.5
				C999.7,1186.9,993.6,1180.9,986.2,1180.9z"/>
		</g>
	</g>
</g>
</svg>
